<svg width="22" height="22" viewBox="0 0 22 22" fill="none" xmlns="http://www.w3.org/2000/svg">
<g clip-path="url(#clip0_42_219)">
<path d="M21.4001 4.55099C20.6266 4.89029 19.8024 5.11519 18.9431 5.22439C19.8271 4.69659 20.5018 3.86719 20.819 2.86749C19.9948 3.35889 19.0848 3.70599 18.115 3.89969C17.3324 3.06639 16.217 2.55029 15.0002 2.55029C12.6394 2.55029 10.7388 4.46649 10.7388 6.81559C10.7388 7.15359 10.7674 7.47859 10.8376 7.78799C7.2925 7.61509 4.1556 5.91599 2.0483 3.32769C1.6804 3.96599 1.4646 4.69659 1.4646 5.48309C1.4646 6.95989 2.2251 8.26899 3.3587 9.02689C2.6736 9.01389 2.0015 8.81499 1.4321 8.50169C1.4321 8.51469 1.4321 8.53159 1.4321 8.54849C1.4321 10.6207 2.9102 12.3419 4.8485 12.7384C4.5014 12.8333 4.1231 12.8788 3.7305 12.8788C3.4575 12.8788 3.1819 12.8632 2.9232 12.806C3.4757 14.4947 5.0435 15.7362 6.9077 15.7765C5.4569 16.9114 3.6148 17.5952 1.6206 17.5952C1.2709 17.5952 0.935498 17.5796 0.600098 17.5367C2.489 18.7548 4.7276 19.4503 7.1417 19.4503C14.9885 19.4503 19.2785 12.9503 19.2785 7.31609C19.2785 7.12759 19.272 6.94559 19.2629 6.76489C20.1092 6.16429 20.8203 5.41419 21.4001 4.55099Z" fill="white"/>
</g>
<defs>
<clipPath id="clip0_42_219">
<rect width="20.8" height="20.8" fill="white" transform="translate(0.600098 0.600098)"/>
</clipPath>
</defs>
</svg>
